<svg xmlns="http://www.w3.org/2000/svg" viewBox="0 0 4873.18 3262.98"><g id="Layer_2" data-name="Layer 2"><g id="Layer_1-2" data-name="Layer 1"><path d="M776.32,2990.63a2911.44,2911.44,0,0,1,210.79-212.57c6.18-5.62,13-11.51,21.34-12.26,10.41-.94,19.55,6.34,27.62,13,119.49,98.63,276.87,150.13,431.55,141.21,185.78-10.72,365.06-107.4,468.46-263,29-43.56,54.21-89,69.19-137.48,17.92-58,32.54-118.78,33.54-179.72,3.8-231.22,1.57-462.53,1.57-693.82,0-608.09,0-554.75,0-1162.85,0-22.81,1.88-45.72.4-68.41-3.66-56.09,15-108.26,36.25-157,27.12-62.25,69.33-115.87,124.23-159.23a433,433,0,0,1,137.86-73C2432-4,2560.83,3.33,2647.49,49.27,2709.26,82,2763.59,124.14,2805,182.75c61.8,87.55,83.94,184.58,83.77,290.09-.86,529.43-.39,586.4-.39,1115.83,0,433.46,0,677.93,0,1111.39,0,9.44,0,18.88-.33,28.31-.54,15-8,23.36-23.58,23.37q-145.15,0-290.32,0c-15.26,0-23.08-8.5-23.58-23.57-.32-9.43-.24-18.88-.24-28.32,0-958.16,0-1254.88,0-2213,0-18.09,1.34-36.4-.93-54.23-8.61-67.67-59.31-106-125.7-78.75-18.6,7.64-35.52,31.55-42.67,51.72-8,22.71-5.31,49.64-5.31,74.74-.09,420-6.15,651-6.23,1070.93,0,209.66-1.22,419.83,5.84,629.4,6.22,184.56-6.48,357.42-82.34,528.83a906.22,906.22,0,0,1-121.27,199.89c-164.3,205.18-417.72,336.36-680.1,352S961.89,3177,774.32,2992.86Z"/><path d="M.07,1711.69q0-822.29,0-1644.56c0-9.44-.25-18.89.14-28.31C1.44,9.33,9.8.91,38.75.89c120.36-.11,240.78-2.42,361,.87,73.66,2,147.87,9.85,214.61,46.54C674,81,725,123.57,765.09,179.38,826.58,265,848.34,361,848.28,464.74c-.46,829.75-.48,998.07.17,1827.82,0,66.93-8.47,132.21-33.13,193.6-14.94,37.21-38.85,71.49-62.51,104.36-40.77,56.62-97.25,96.39-159.95,123.6-58.94,25.57-122.18,37.63-187.94,36.64-121.9-1.85-243.85-.46-365.77-.5-36.19,0-39-2.89-39.06-38.93,0-415.27,0-641.56,0-1056.83Zm340.17-.31v648.18c0,7.87-.15,15.74.07,23.6.72,25.18,7,31.61,32.92,31.91,17.67.21,35.4-.21,53-1.47,48.16-3.45,85.43-43.25,87.09-91.51.49-14.15.44-28.31.44-42.47,0-819.6,0-977.75,0-1797.35,0-17.3-1.65-34.73-.09-51.88,3.53-38.63-33.16-80.73-70.56-83.94-23.45-2-46.91-4.09-70.4-5.41-20.67-1.15-30,11.19-31.92,30.07-1,9.34-.55,18.85-.55,28.29Q340.23,1055.38,340.24,1711.38Z"/><path d="M1861.55,1524c0,476-.44,290.49.53,766.45a599.88,599.88,0,0,1-28.37,183.45c-19,59.73-54.78,112.46-100.64,156.78-37.49,36.23-80,66.41-127.49,86.91-66.43,28.68-136.77,38.89-209.59,33.12-58.07-4.61-110.31-24-162.2-49.5-60.44-29.66-106.94-74.82-145.43-126.83-32.37-43.74-57.59-94.25-65.69-149.27a991.18,991.18,0,0,1-10.37-143.4c-.57-958.22-.43-1255-.42-2213.22,0-9.44-.24-18.91.37-28.31,1.27-19.45,11.69-31,31.42-31.08,89.7-.31,179.41-.68,269.1.23,32.78.34,38.9,9.35,38.9,47.18,0,960.58,0,1259.72.12,2220.29,0,20.42.81,40.92,2.61,61.25,3.93,44.28,28.11,72,65.76,76.81,45.32,5.78,76.1-11.77,90.3-56.67,7.39-23.39,10.83-49,10.84-73.62.53-956.64.45-1251.84.45-2208.49,0-67.26,0-67.27,66.69-67.27,73.18,0,146.35-.13,219.53.17a169.85,169.85,0,0,1,32.65,3.45c14.18,2.86,21.42,12.1,20.89,27.05-.31,8.64,0,17.3,0,25.95Z"/><path d="M3033.24,1711.2q0-823.51,0-1647c0-9.44-.35-18.9.26-28.31,1.68-26.36,10.45-35,36.63-35Q3456,.78,3841.86,1c30.12,0,38.33,6.72,38.63,37.23q1.31,132.12,0,264.26c-.32,32-8.18,38.22-40,38.26q-212.4.19-424.8.12c-36.43,0-44.29,7.64-44.32,44.29q-.19,293.77,0,587.54c0,32.82,5.68,38.31,38.68,38.36,87.32.14,174.64-.07,262,.25,32.81.12,36.81,3.5,37,36.66.66,89.66,0,179.33.61,269,.17,24-13.09,28.87-33.14,28.83-88.1-.19-176.21,0-264.32.15-35.43,0-39.23,3.7-40.54,38.84-.41,11-.34,22-.34,33,0,536.42,0,411.4,0,947.82,0,48.73.92,49.63,50.83,49.64q210,0,420.08.06c35.48,0,37.58,1.07,38,37.2,1,89.65.4,179.32,1.12,269,.19,23.79-12.59,28.9-33,28.84-110.92-.33-221.84-.08-332.76-.06q-221.84,0-443.68,0c-35.86,0-38.65-2.9-38.66-39.34C3033.23,2157.2,3033.24,2264.92,3033.24,1711.2Z"/><path d="M4025.39,1711.81q0-823.68,0-1647.34c0-9.44-.33-18.91.25-28.31C4027.29,9.55,4035.91.92,4062,.91q387.1-.12,774.23.12c27.23,0,35.86,6.87,36.16,34.73q1.47,134.51,0,269c-.34,30-8.55,35.92-39.75,36q-212.45.19-424.88.12c-36.4,0-44.24,7.65-44.26,44.36q-.19,293.84,0,587.66c0,32.61,5.79,38.13,38.88,38.17,86.55.13,173.1-.07,259.65.21,35.06.11,38.91,3.14,39.16,37,.65,89.68.05,179.37.56,269,.13,22.17-11.37,28.47-31.08,28.43q-133.36-.24-266.73.22c-35.05.06-38.93,3.83-40.16,39.24-.46,13.36-.33,26.75-.33,40.12,0,644.3,0,627.17,0,1271.47,0,9.44-.16,18.88-.15,28.32.05,22.48-15,30-46.37,21.39-78-21.49-160.43-24.87-237.87-1.42-36.89,11.17-54.39,3.84-53.68-21.38.24-8.64,0-17.3,0-25.95C4025.39,2148.59,4025.39,2260.92,4025.39,1711.81Z"/></g></g></svg>